<svg id="Calque_1" data-name="Calque 1" xmlns="http://www.w3.org/2000/svg" xmlns:xlink="http://www.w3.org/1999/xlink" viewBox="0 0 100 101.92" width="32" height="32">
  <defs>
    <style>
      .cls-1{fill:url(#New_Gradient_Swatch_copy_130);}
      .cls-2{fill:#00a19a;}
      .cls-3{fill:url(#New_Gradient_Swatch_copy_130-2);}
      .cls-4{fill:#0c63ad;}
    </style>
    <linearGradient id="New_Gradient_Swatch_copy_130" x1="86.87" y1="285.82" x2="171.09" y2="285.82" gradientUnits="userSpaceOnUse">
      <stop offset="0" stop-color="#f1a500"/>
      <stop offset="1" stop-color="#e94b23"/>
    </linearGradient>
    <linearGradient id="New_Gradient_Swatch_copy_130-2" x1="173.5" y1="263.06" x2="184.13" y2="263.06" xlink:href="#New_Gradient_Swatch_copy_130"/>
  </defs>
  <g>
    <path class="cls-1" d="M169,274.62c.69,1.05,1.4,2.08,2.13,3.08l-.06.08c-.25.29-.49.59-.75.88l-.78.88a63.55,63.55,0,0,1-7.15,6.89,58.25,58.25,0,0,1-8.79,6c-.78.46-1.61.85-2.42,1.27-.41.21-.83.39-1.24.58l-1.26.57c-1.7.7-3.42,1.38-5.18,1.91a56,56,0,0,1-10.78,2.19c-1.8.17-3.6.3-5.37.31h-2.65l-1.31-.06-.65,0-.64,0-1.29-.09-1.27-.13c-.42,0-.83-.09-1.25-.14s-.83-.1-1.24-.17c-.82-.12-1.63-.24-2.42-.39s-1.58-.3-2.36-.46c-1.54-.33-3-.68-4.46-1.08-.71-.19-1.41-.4-2.1-.6s-1.35-.41-2-.63l-1-.32c-.31-.12-.63-.23-.94-.33L100,294.1c-1.16-.46-2.26-.9-3.28-1.35-2-.88-3.8-1.73-5.22-2.46s-2.52-1.35-3.26-1.79l-.84-.51-.29-.18a.42.42,0,0,1-.13-.58.45.45,0,0,1,.45-.19l.14,0,.34.08,1,.2,1.58.33,2.11.43c1.58.31,3.47.69,5.63,1.06l1.65.28,1.75.28c1.2.18,2.44.39,3.75.54,2.59.34,5.37.64,8.27.84,1.45.09,2.93.16,4.42.21h1.13c.38,0,.76,0,1.14,0h1.14l1.14,0h.58l.57,0,1.16,0c.76-.06,1.54-.09,2.31-.17l1.15-.1,1.16-.13,1.16-.14c.38-.06.77-.1,1.15-.17a59.84,59.84,0,0,0,9.09-2.07l1.11-.34,1.1-.39.55-.19.54-.21,1.09-.41,1.07-.45c.35-.15.72-.29,1.06-.46.71-.32,1.41-.63,2.1-1a69.86,69.86,0,0,0,7.93-4.62,84.16,84.16,0,0,0,7.1-5.39l.82-.69c.28-.23.54-.47.81-.71l.79-.7c.2-.18.41-.35.6-.53C168,273.14,168.48,273.88,169,274.62Z" transform="translate(-86.87 -199.04)"/>
    <path class="cls-2" d="M175.7,271.65l-.67,1-.61.84c-.2.29-.41.58-.63.86L172.46,276l-.05.07L169.05,271l.19-.16c.25-.23.49-.47.72-.7l.72-.68,1.4-1.36c.85.84,1.75,1.74,2.7,2.66Z" transform="translate(-86.87 -199.04)"/>
    <path class="cls-3" d="M184.09,256.76l-.57,1.19-.68,1.42c-.13.28-.27.58-.44.89l-.52,1c-.19.35-.38.72-.58,1.12s-.42.8-.66,1.21-.48.86-.74,1.31l-.39.69c-.13.24-.26.48-.41.71l-.9,1.48c-.31.5-.61,1-1,1.55l-.41.62-.65-.63c-1-.95-1.86-1.83-2.68-2.67.8-.82,1.56-1.61,2.3-2.35s1.44-1.56,2.12-2.25c.35-.34.65-.68,1-1l.87-.93.79-.84c.26-.26.48-.51.7-.74.43-.47.81-.86,1.11-1.18s.56-.56.72-.72l.25-.25.1-.11a.42.42,0,0,1,.68.48Z" transform="translate(-86.87 -199.04)"/>
    <circle class="cls-4" cx="46.41" cy="68.12" r="14.1"/>
  </g>
</svg>
