<svg id="Calque_1" data-name="Calque 1" xmlns="http://www.w3.org/2000/svg" xmlns:xlink="http://www.w3.org/1999/xlink" viewBox="0 0 326.27 101.92"><defs><style>.cls-1{fill:url(#New_Gradient_Swatch_copy_130);}.cls-2{fill:#00a19a;}.cls-3{fill:url(#New_Gradient_Swatch_copy_130-2);}.cls-4{fill:#0c63ad;}.cls-5{fill:url(#New_Gradient_Swatch_copy_130-3);}.cls-6{fill:url(#New_Gradient_Swatch_copy_130-4);}.cls-7{fill:url(#New_Gradient_Swatch_copy_130-5);}.cls-8{fill:url(#New_Gradient_Swatch_copy_130-6);}</style><linearGradient id="New_Gradient_Swatch_copy_130" x1="86.87" y1="285.82" x2="171.09" y2="285.82" gradientUnits="userSpaceOnUse"><stop offset="0" stop-color="#f1a500"/><stop offset="1" stop-color="#e94b23"/></linearGradient><linearGradient id="New_Gradient_Swatch_copy_130-2" x1="173.5" y1="263.06" x2="184.13" y2="263.06" xlink:href="#New_Gradient_Swatch_copy_130"/><linearGradient id="New_Gradient_Swatch_copy_130-3" x1="192.1" y1="270.31" x2="214.02" y2="270.31" gradientTransform="translate(196.41 -67.71) rotate(35.79)" xlink:href="#New_Gradient_Swatch_copy_130"/><linearGradient id="New_Gradient_Swatch_copy_130-4" x1="318.38" y1="267.77" x2="323.04" y2="267.77" xlink:href="#New_Gradient_Swatch_copy_130"/><linearGradient id="New_Gradient_Swatch_copy_130-5" x1="288.1" y1="225.68" x2="294.1" y2="225.68" xlink:href="#New_Gradient_Swatch_copy_130"/><linearGradient id="New_Gradient_Swatch_copy_130-6" x1="279.21" y1="258.26" x2="323.04" y2="258.26" xlink:href="#New_Gradient_Swatch_copy_130"/></defs><path class="cls-1" d="M169,274.62c.69,1.05,1.4,2.08,2.13,3.08l-.06.08c-.25.29-.49.59-.75.88l-.78.88a63.55,63.55,0,0,1-7.15,6.89,58.25,58.25,0,0,1-8.79,6c-.78.46-1.61.85-2.42,1.27-.41.21-.83.39-1.24.58l-1.26.57c-1.7.7-3.42,1.38-5.18,1.91a56,56,0,0,1-10.78,2.19c-1.8.17-3.6.3-5.37.31h-2.65l-1.31-.06-.65,0-.64,0-1.29-.09-1.27-.13c-.42,0-.83-.09-1.25-.14s-.83-.1-1.24-.17c-.82-.12-1.63-.24-2.42-.39s-1.58-.3-2.36-.46c-1.54-.33-3-.68-4.46-1.08-.71-.19-1.41-.4-2.1-.6s-1.35-.41-2-.63l-1-.32c-.31-.12-.63-.23-.94-.33L100,294.1c-1.16-.46-2.26-.9-3.28-1.35-2-.88-3.8-1.73-5.22-2.46s-2.52-1.35-3.26-1.79l-.84-.51-.29-.18a.42.42,0,0,1-.13-.58.45.45,0,0,1,.45-.19l.14,0,.34.08,1,.2,1.58.33,2.11.43c1.58.31,3.47.69,5.63,1.06l1.65.28,1.75.28c1.2.18,2.44.39,3.75.54,2.59.34,5.37.64,8.27.84,1.45.09,2.93.16,4.42.21h1.13c.38,0,.76,0,1.14,0h1.14l1.14,0h.58l.57,0,1.16,0c.76-.06,1.54-.09,2.31-.17l1.15-.1,1.16-.13,1.16-.14c.38-.06.77-.1,1.15-.17a59.84,59.84,0,0,0,9.09-2.07l1.11-.34,1.1-.39.55-.19.54-.21,1.09-.41,1.07-.45c.35-.15.72-.29,1.06-.46.71-.32,1.41-.63,2.1-1a69.86,69.86,0,0,0,7.93-4.62,84.16,84.16,0,0,0,7.1-5.39l.82-.69c.28-.23.54-.47.81-.71l.79-.7c.2-.18.41-.35.6-.53C168,273.14,168.48,273.88,169,274.62Z" transform="translate(-86.87 -199.04)"/><path class="cls-2" d="M175.7,271.65l-.67,1-.61.84c-.2.29-.41.58-.63.86L172.46,276l-.05.07L169.05,271l.19-.16c.25-.23.49-.47.72-.7l.72-.68,1.4-1.36c.85.84,1.75,1.74,2.7,2.66Z" transform="translate(-86.87 -199.04)"/><path class="cls-3" d="M184.09,256.76l-.57,1.19-.68,1.42c-.13.28-.27.58-.44.89l-.52,1c-.19.35-.38.72-.58,1.12s-.42.8-.66,1.21-.48.86-.74,1.31l-.39.69c-.13.24-.26.48-.41.71l-.9,1.48c-.31.5-.61,1-1,1.55l-.41.62-.65-.63c-1-.95-1.86-1.83-2.68-2.67.8-.82,1.56-1.61,2.3-2.35s1.44-1.56,2.12-2.25c.35-.34.65-.68,1-1l.87-.93.79-.84c.26-.26.48-.51.7-.74.43-.47.81-.86,1.11-1.18s.56-.56.72-.72l.25-.25.1-.11a.42.42,0,0,1,.68.48Z" transform="translate(-86.87 -199.04)"/><path class="cls-4" d="M237.61,287.29l-.86.57c-.57.36-1.38.92-2.46,1.55s-2.4,1.4-3.95,2.21l-1.21.61-.63.32-.66.3-1.38.62-1.47.6a51.48,51.48,0,0,1-6.65,2.14,42.4,42.4,0,0,1-7.73,1.16c-.34,0-.68,0-1,0l-1,0c-.34,0-.69,0-1,0l-1,0a36.11,36.11,0,0,1-4.22-.48,38.82,38.82,0,0,1-4.21-1l-1-.33-.52-.16-.51-.19-1-.37-1-.42-.5-.21-.5-.23-1-.46-1-.5-.48-.25-.47-.27-.94-.53-.92-.57c-.31-.18-.6-.38-.9-.58s-.6-.39-.89-.6a52,52,0,0,1-6.44-5.31,57.41,57.41,0,0,1-5.22-5.77c-.83-1-1.6-2.06-2.31-3.06L169.05,271c-.52-.87-1-1.71-1.43-2.5-.84-1.54-1.52-2.9-2.06-4s-.93-2-1.19-2.66c-.12-.31-.22-.55-.28-.72s-.1-.25-.1-.25a.38.38,0,0,1,.63-.4l.11.11.76.77.89.92.57.58.62.65,3.16,3.26,1.35,1.37c.85.84,1.75,1.74,2.7,2.66l.92.9c1.21,1.16,2.5,2.37,3.84,3.58,1.71,1.51,3.5,3,5.39,4.5.94.73,1.9,1.44,2.88,2.12l.74.51c.24.18.5.33.75.49.49.35,1,.65,1.5,1,1,.61,2,1.22,3.09,1.75l.39.21.4.19.79.39.79.36.4.18.4.17.8.34.81.31.4.15.41.14.81.28.82.25c.27.09.54.18.82.25l.82.22.41.1.42.1a40,40,0,0,0,6.68,1,51,51,0,0,0,6.66,0c2.18-.13,4.3-.42,6.29-.72l1.47-.24c.48-.09.95-.18,1.42-.25.94-.14,1.8-.38,2.65-.52,1.67-.35,3.17-.68,4.41-1l.89-.2c.29,0,.55-.11.79-.17l1.26-.27c.69-.15,1.08-.21,1.08-.21l.16,0a.38.38,0,0,1,.44.31A.39.39,0,0,1,237.61,287.29Z" transform="translate(-86.87 -199.04)"/><circle class="cls-4" cx="46.41" cy="68.12" r="14.1"/><circle class="cls-5" cx="203.06" cy="270.31" r="10.96" transform="translate(-206.59 -29.26) rotate(-35.79)"/><path class="cls-4" d="M254.11,257.21h5.12v33.24q0,5.35-2.37,7.93T249.57,301a10.57,10.57,0,0,1-4.73-1,12.71,12.71,0,0,1-4-3.18l3.35-3.35a12,12,0,0,0,2.91,2.33,6,6,0,0,0,2.8.7,3.4,3.4,0,0,0,3.24-1.72q.94-1.72,1-6.75Z" transform="translate(-86.87 -199.04)"/><path class="cls-4" d="M292.39,287.19H271.28v.41a9.76,9.76,0,0,0,2.45,6.91,8.27,8.27,0,0,0,6.37,2.63,8.52,8.52,0,0,0,4.84-1.44,12.68,12.68,0,0,0,3.81-4.35l3.46,2.33A13.36,13.36,0,0,1,279.87,301a12.83,12.83,0,0,1-9.84-4,14.83,14.83,0,0,1-3.75-10.54A14.4,14.4,0,0,1,270,276.16a12.53,12.53,0,0,1,9.58-4,12,12,0,0,1,9.36,3.78q3.45,3.8,3.45,10.34Zm-4.89-3.7a7.67,7.67,0,0,0-2.35-5.43,8.28,8.28,0,0,0-5.77-1.9,8,8,0,0,0-5.54,2,8.07,8.07,0,0,0-2.56,5.34Z" transform="translate(-86.87 -199.04)"/><path class="cls-4" d="M388.86,287.19H367.75v.41a9.76,9.76,0,0,0,2.45,6.91,8.27,8.27,0,0,0,6.37,2.63,8.52,8.52,0,0,0,4.84-1.44,12.68,12.68,0,0,0,3.81-4.35l3.46,2.33A13.36,13.36,0,0,1,376.34,301a12.83,12.83,0,0,1-9.84-4,14.83,14.83,0,0,1-3.75-10.54,14.4,14.4,0,0,1,3.72-10.24,12.53,12.53,0,0,1,9.58-4,12,12,0,0,1,9.36,3.78q3.45,3.8,3.45,10.34Zm-4.89-3.7a7.67,7.67,0,0,0-2.35-5.43,8.28,8.28,0,0,0-5.77-1.9,8,8,0,0,0-5.54,2,8.07,8.07,0,0,0-2.56,5.34Z" transform="translate(-86.87 -199.04)"/><path class="cls-4" d="M392.9,295.34l3.9-2.62a8,8,0,0,0,2.8,3.19,7.29,7.29,0,0,0,4,1.06,5.61,5.61,0,0,0,3.62-1.11,3.53,3.53,0,0,0,1.38-2.91,3.14,3.14,0,0,0-.94-2.33,8.75,8.75,0,0,0-3.25-1.71l-.76-.27q-9.72-3.34-9.72-8.38a7.28,7.28,0,0,1,2.62-5.79,10.09,10.09,0,0,1,6.81-2.24,12,12,0,0,1,5.94,1.38,7.93,7.93,0,0,1,3.55,3.91l-3.69,2.28a6.26,6.26,0,0,0-2.4-2.83,6.84,6.84,0,0,0-3.69-1,4.77,4.77,0,0,0-3.27,1.12,3.66,3.66,0,0,0-1.27,2.87q0,2.44,5.3,4.1l1.57.5c2.89.93,4.91,2,6,3.19a6.55,6.55,0,0,1,1.7,4.73,7.7,7.7,0,0,1-2.69,6.12,10.28,10.28,0,0,1-7,2.35,13.27,13.27,0,0,1-6.33-1.4A10.36,10.36,0,0,1,392.9,295.34Z" transform="translate(-86.87 -199.04)"/><path class="cls-4" d="M204.08,210.25a20.71,20.71,0,0,0-6.52-4.91,18.27,18.27,0,0,0-7.65-1.58,17.18,17.18,0,0,0-12.17,5.18,17.17,17.17,0,0,0-3.67,5.66,19,19,0,0,0-1.22,6.91,19.42,19.42,0,0,0,.73,5.48,15.57,15.57,0,0,0,2.18,4.6,17.82,17.82,0,0,0,6.3,5.6,17.67,17.67,0,0,0,15.65.28,19.88,19.88,0,0,0,6.37-5v6.73a24.14,24.14,0,0,1-6.82,3.47,24.39,24.39,0,0,1-7.56,1.18,21.88,21.88,0,0,1-6.58-1,22.36,22.36,0,0,1-6-2.93,21.63,21.63,0,0,1-9.58-18.31,23.62,23.62,0,0,1,1.64-8.95,21.44,21.44,0,0,1,5-7.32,21.82,21.82,0,0,1,7.22-4.7,24.12,24.12,0,0,1,15.8-.44,26,26,0,0,1,6.84,3.48Z" transform="translate(-86.87 -199.04)"/><path class="cls-4" d="M210.11,229.43a14.28,14.28,0,0,1,1.08-5.54,13.81,13.81,0,0,1,3.14-4.65,14.41,14.41,0,0,1,4.69-3.1,14.85,14.85,0,0,1,5.58-1.06,14.26,14.26,0,0,1,5.52,1.08,14.92,14.92,0,0,1,4.73,3.14,13.67,13.67,0,0,1,3.15,4.62,14.67,14.67,0,0,1,0,11,13.61,13.61,0,0,1-3.15,4.58,15,15,0,0,1-4.76,3.21,14.13,14.13,0,0,1-5.49,1.1,14.37,14.37,0,0,1-5.57-1.09,14.52,14.52,0,0,1-7.84-7.79A14,14,0,0,1,210.11,229.43Zm4.83,0a9.91,9.91,0,0,0,2.82,7.15,9.17,9.17,0,0,0,6.84,2.92,9.05,9.05,0,0,0,6.79-2.92,10.54,10.54,0,0,0,0-14.29,9.4,9.4,0,0,0-13.64,0A9.93,9.93,0,0,0,214.94,229.43Z" transform="translate(-86.87 -199.04)"/><path class="cls-4" d="M336.39,230H315.28v.41a9.79,9.79,0,0,0,2.45,6.92A8.3,8.3,0,0,0,324.1,240a8.47,8.47,0,0,0,4.83-1.44,12.6,12.6,0,0,0,3.82-4.35l3.46,2.33a13.32,13.32,0,0,1-12.34,7.27,12.86,12.86,0,0,1-9.84-4,14.83,14.83,0,0,1-3.76-10.54A14.44,14.44,0,0,1,314,219a12.52,12.52,0,0,1,9.58-4,12,12,0,0,1,9.36,3.79q3.45,3.78,3.45,10.33Zm-4.89-3.69a7.67,7.67,0,0,0-2.35-5.43,8.29,8.29,0,0,0-5.78-1.91,7.79,7.79,0,0,0-8.09,7.34Z" transform="translate(-86.87 -199.04)"/><path class="cls-4" d="M363.69,236.36v5.3a14.07,14.07,0,0,1-4.06,1.61,20.91,20.91,0,0,1-4.88.54,13.18,13.18,0,0,1-9.94-3.91A14.23,14.23,0,0,1,341,229.61a14.5,14.5,0,0,1,3.9-10.47,13.27,13.27,0,0,1,10-4.06,20.06,20.06,0,0,1,4.32.47,17.65,17.65,0,0,1,4,1.37v4.89a15.15,15.15,0,0,0-3.61-1.74,12.65,12.65,0,0,0-3.79-.59,9.5,9.5,0,0,0-7.19,2.81,10.32,10.32,0,0,0-2.71,7.46,9.38,9.38,0,0,0,2.73,6.87,9.15,9.15,0,0,0,6.82,2.77,11.55,11.55,0,0,0,4-.73A17.29,17.29,0,0,0,363.69,236.36Z" transform="translate(-86.87 -199.04)"/><path class="cls-4" d="M370.74,219.8h-4.9V216h4.9V205.3h4.65V216h4.89v3.76h-4.89v22.88h-4.65Z" transform="translate(-86.87 -199.04)"/><path class="cls-4" d="M252.42,243.3V230.2c0-3.82.56-6.49,1.7-8s3.05-2.28,5.75-2.28,4.6.75,5.72,2.26,1.67,4.18,1.67,8v13.1h4.66V227.76q0-6-3.09-9.13t-9.08-3.1q-5.94,0-9,3.12t-3.09,9.11V243.3Z" transform="translate(-86.87 -199.04)"/><path class="cls-4" d="M335.58,300.45v-13.1c0-3.82.56-6.5,1.7-8S340.33,277,343,277s4.6.76,5.72,2.26,1.67,4.19,1.67,8.05v13.1h4.66V284.9c0-4-1-7.06-3.09-9.12s-5.08-3.1-9.08-3.1-7,1-9,3.11-3.09,5.12-3.09,9.11v15.55Z" transform="translate(-86.87 -199.04)"/><path class="cls-6" d="M320.71,270.09a2.33,2.33,0,1,0,0-4.65h0a2.33,2.33,0,1,0,0,4.65Z" transform="translate(-86.87 -199.04)"/><path class="cls-7" d="M291.1,222.68a3,3,0,1,0,3,3A3,3,0,0,0,291.1,222.68Z" transform="translate(-86.87 -199.04)"/><path class="cls-8" d="M320.71,273.19a2.33,2.33,0,0,0-2.33,2.33v10.77q0,5.79-1.67,8c-1.12,1.5-3,2.25-5.72,2.25s-4.62-.76-5.75-2.28-1.7-4.2-1.7-8l-.05-13.1v-45.4q0-6-3.09-9.13t-9.08-3.1q-5.94,0-9,3.12t-3.09,9.11V241a2.39,2.39,0,0,0,4.77,0V230.23q0-5.73,1.71-8t5.75-2.28q4,0,5.72,2.25t1.67,8v9.52l-.07,33.44v15.54q0,6,3.09,9.11t9,3.12q6,0,9.08-3.1t3.09-9.13V275.52A2.33,2.33,0,0,0,320.71,273.19Z" transform="translate(-86.87 -199.04)"/></svg>